<svg width="52" height="52" viewBox="0 0 52 52" fill="none" xmlns="http://www.w3.org/2000/svg">
    <path
        d="M51.62 17.43C51.62 17.43 51.59 17.35 51.58 17.31C51.55 17.21 51.51 17.11 51.46 17.01C51.44 16.97 51.42 16.93 51.39 16.88C51.34 16.79 51.28 16.7 51.21 16.62C51.18 16.59 51.16 16.55 51.13 16.52C51.03 16.41 50.92 16.31 50.79 16.23L26.94 0.33C26.27 -0.11 25.4 -0.11 24.74 0.33L0.89 16.23C0.77 16.31 0.66 16.41 0.55 16.52C0.52 16.55 0.49 16.59 0.47 16.62C0.4 16.7 0.34 16.79 0.29 16.88C0.27 16.92 0.24 16.96 0.22 17.01C0.17 17.11 0.14 17.21 0.1 17.31C0.09 17.35 0.07 17.39 0.06 17.43C0.03 17.58 0 17.73 0 17.88V44.37C0 48.39 3.27 51.66 7.29 51.66H44.38C48.4 51.66 51.67 48.39 51.67 44.37V17.88C51.67 17.72 51.65 17.57 51.61 17.43H51.62ZM36.91 28.79L47.7 21.6V39.58L36.91 28.79ZM25.84 4.37L46.1 17.88L25.84 31.39L5.58 17.88L25.84 4.37ZM3.98 21.6L14.77 28.79L3.98 39.58V21.6ZM44.39 47.69H7.3C5.73 47.69 4.41 46.59 4.08 45.11L18.15 31.04L24.74 35.44C25.07 35.66 25.46 35.77 25.84 35.77C26.22 35.77 26.61 35.66 26.94 35.44L33.53 31.04L47.6 45.11C47.26 46.58 45.95 47.69 44.38 47.69H44.39Z"
        fill="url(#paint0_linear_11_104)" />
    <defs>
        <linearGradient id="paint0_linear_11_104" x1="25.835" y1="0" x2="25.835" y2="51.66"
            gradientUnits="userSpaceOnUse">
            <stop stop-color="#4FFE01" />
            <stop offset="1" stop-color="#045000" />
        </linearGradient>
    </defs>
</svg>