<svg xmlns="http://www.w3.org/2000/svg" width="17" height="27" viewBox="0 0 17 27" fill="none">
    <path
        d="M10.5403 26.3512H5.13891C4.57887 26.3512 4.12199 25.8944 4.12199 25.3343V16.8896H1.086C0.525965 16.8896 0.0690918 16.4327 0.0690918 15.8726V10.4712C0.0690918 9.91119 0.525965 9.45432 1.086 9.45432H4.12199V7.76684C4.12199 3.4855 7.60749 0 11.8888 0H15.9417C16.5018 0 16.9586 0.456873 16.9586 1.01691V6.41832C16.9586 6.97836 16.5018 7.43524 15.9417 7.43524H11.8888C11.7046 7.43524 11.5499 7.58998 11.5499 7.77421V9.46169H15.9417C16.2512 9.46169 16.546 9.60907 16.7376 9.85224C16.9292 10.0954 16.9955 10.4196 16.9218 10.7218L15.5733 16.1232C15.4628 16.5727 15.0575 16.8896 14.5932 16.8896H11.5572V25.3343C11.5572 25.8944 11.1004 26.3512 10.5403 26.3512ZM6.15582 24.3248H9.53078V15.88C9.53078 15.32 9.98765 14.8631 10.5477 14.8631H13.8121L14.6595 11.4881H10.5551C9.99502 11.4881 9.53815 11.0313 9.53815 10.4712V7.76684C9.53815 6.46254 10.5993 5.40141 11.9036 5.40141H14.9396V2.03382H11.9036C8.73494 2.03382 6.16318 4.61294 6.16318 7.77421V10.4786C6.16318 11.0386 5.70631 11.4955 5.14628 11.4955H2.11028V14.8705H5.14628C5.70631 14.8705 6.16318 15.3273 6.16318 15.8874V24.3322L6.15582 24.3248Z"
        fill="#fff" />
</svg>