<svg xmlns="http://www.w3.org/2000/svg" width="24" height="24" viewBox="0 0 24 24" fill="none">
    <path
        d="M17.2285 0.352295H6.41832C2.88125 0.352295 0 3.23354 0 6.77062V17.5808C0 21.1179 2.88125 23.9991 6.41832 23.9991H17.2285C20.7656 23.9991 23.6468 21.1179 23.6468 17.5808V6.77062C23.6468 3.23354 20.7656 0.352295 17.2285 0.352295ZM21.613 17.5808C21.613 20.0052 19.6455 21.9727 17.2212 21.9727H6.41096C3.98658 21.9727 2.01908 20.0052 2.01908 17.5808V6.77062C2.01908 4.34625 3.98658 2.37875 6.41096 2.37875H17.2212C19.6455 2.37875 21.613 4.34625 21.613 6.77062V17.5808Z"
        fill="#fff" />
    <path
        d="M11.8197 7.10959C9.02692 7.10959 6.74993 9.37922 6.74993 12.1794C6.74993 14.9796 9.01955 17.2492 11.8197 17.2492C14.6199 17.2492 16.8896 14.9796 16.8896 12.1794C16.8896 9.37922 14.6199 7.10959 11.8197 7.10959ZM11.8197 15.2154C10.147 15.2154 8.78375 13.8521 8.78375 12.1794C8.78375 10.5067 10.147 9.14341 11.8197 9.14341C13.4925 9.14341 14.8557 10.5067 14.8557 12.1794C14.8557 13.8521 13.4925 15.2154 11.8197 15.2154Z"
        fill="#FFF" />
    <path
        d="M17.8991 5.09051C17.3391 5.09051 16.8822 5.54738 16.8822 6.10742C16.8822 6.66746 17.3391 7.12433 17.8991 7.12433C18.4591 7.12433 18.916 6.66746 18.916 6.10742V6.09268C18.916 5.53264 18.4591 5.08314 17.8991 5.08314V5.09051Z"
        fill="#FFF" />
</svg>