<svg width="45" height="51" viewBox="0 0 45 51" fill="none" xmlns="http://www.w3.org/2000/svg">
    <path
        d="M22.4952 31.8978C17.1775 31.8978 12.8534 27.6072 12.8534 22.3306C12.8534 17.0539 17.1775 12.7633 22.4952 12.7633C27.8129 12.7633 32.137 17.0539 32.137 22.3306C32.137 27.6072 27.8129 31.8978 22.4952 31.8978ZM22.4952 16.5772C19.3068 16.5772 16.708 19.1559 16.708 22.3197C16.708 25.4835 19.3068 28.0622 22.4952 28.0622C25.6837 28.0622 28.2825 25.4835 28.2825 22.3197C28.2825 19.1559 25.6837 16.5772 22.4952 16.5772Z"
        fill="url(#paint0_linear_11_110)" />
    <path
        d="M22.4952 51C20.6826 51 18.87 50.3174 17.4942 48.9522L6.57481 38.1173C-2.19342 29.406 -2.19342 15.2339 6.58573 6.53346C15.3649 -2.17782 29.6474 -2.17782 38.4156 6.53346C47.1948 15.2447 47.1948 29.4168 38.4156 38.1173L27.4963 48.9522C26.1204 50.3174 24.3078 51 22.4952 51ZM22.4952 3.82473C17.7235 3.82473 12.9408 5.62333 9.30465 9.23136C2.03236 16.4474 2.03236 28.1925 9.30465 35.3977L20.224 46.2326C21.4797 47.4786 23.5216 47.4678 24.7664 46.2326L35.6858 35.3977C42.9581 28.1816 42.9581 16.4366 35.6858 9.23136C32.0497 5.62333 27.2779 3.82473 22.4952 3.82473Z"
        fill="url(#paint1_linear_11_110)" />
    <defs>
        <linearGradient id="paint0_linear_11_110" x1="22.5" y1="0" x2="22.5" y2="51" gradientUnits="userSpaceOnUse">
            <stop stop-color="#4FFE01" />
            <stop offset="1" stop-color="#045000" />
        </linearGradient>
        <linearGradient id="paint1_linear_11_110" x1="22.5" y1="0" x2="22.5" y2="51" gradientUnits="userSpaceOnUse">
            <stop stop-color="#4FFE01" />
            <stop offset="1" stop-color="#045000" />
        </linearGradient>
    </defs>
</svg>