<svg xmlns="http://www.w3.org/2000/svg" width="407" height="112" viewBox="0 0 407 112" fill="none">
    <path
        d="M107.269 56.4223V107.782C107.269 108.732 106.499 109.512 105.539 109.512H90.6586C89.7086 109.512 88.9286 108.742 88.9286 107.782V107.262C88.9286 106.162 88.1086 105.242 87.0186 105.122C84.2086 104.812 82.1586 106.532 79.7586 107.852C78.1386 108.732 75.7286 109.792 72.3686 110.352C68.7086 111.032 63.3986 111.592 57.0986 110.772C52.0586 110.112 47.7986 108.762 44.4786 107.372C42.9286 106.722 42.9686 104.502 44.5486 103.912C55.4486 99.8123 81.9886 88.6823 80.8286 77.5223V77.4923C80.6686 75.9823 79.3886 74.8423 77.8686 74.8423H66.1886C65.1486 74.8423 64.3086 74.0023 64.3086 72.9623V56.4223C64.3086 55.3823 65.1486 54.5423 66.1886 54.5423H105.389C106.429 54.5423 107.269 55.3823 107.269 56.4223Z"
        fill="url(#paint0_linear_11_142)" />
    <path
        d="M112.999 41.0123C113.439 42.2323 112.929 43.5823 111.789 44.2023C109.789 45.2823 107.809 46.3723 105.789 47.3723C105.789 47.3723 105.789 47.3723 105.779 47.3723C105.099 47.7123 104.359 47.9123 103.589 47.9123H87.4186C85.3986 47.9123 83.5886 46.7523 82.6786 44.9523C78.7886 37.2823 71.4486 31.4723 62.3286 29.8723C46.9386 27.1723 32.2686 37.4623 29.5686 52.8523C26.8686 68.2423 37.1586 82.9123 52.5486 85.6123H52.5786C56.1186 86.2423 56.8586 91.0023 53.6586 92.6623C52.5186 93.2523 51.3286 93.8423 50.0886 94.4023C44.8186 96.8223 39.9286 98.3923 35.7686 99.4323C35.1286 99.5923 34.4486 99.5023 33.8686 99.1823C33.8086 99.1523 33.7486 99.1123 33.6786 99.0823C32.6086 98.4623 32.0386 98.4023 31.2186 99.1523C29.4886 100.752 27.7186 102.312 25.8886 103.922C24.9186 104.782 23.4586 104.792 22.4786 103.952C20.9386 102.652 19.4186 101.362 17.8686 100.042C16.8786 99.2023 16.6586 97.7723 17.3386 96.6723C18.5686 94.6923 19.7586 92.7623 21.0086 90.8623C21.6486 89.8923 21.7186 89.2323 20.9186 88.2223C19.2186 86.0723 17.6486 83.8323 16.2086 81.5023C15.6086 80.5223 15.1286 80.1923 14.0186 80.4523C11.7386 80.9723 9.43857 81.4223 7.08857 81.8923C5.82857 82.1423 4.57857 81.4323 4.12857 80.2323C3.26857 77.8823 2.42857 75.6123 1.68857 73.3023C1.56857 72.9223 2.13857 72.0623 2.59857 71.7923C4.87857 70.4723 7.21857 69.2623 9.55857 68.0623C10.3686 67.6423 10.7886 67.2723 10.6386 66.1623C10.2386 63.2423 10.1286 60.2823 9.76857 57.3623C9.69857 56.7923 9.12857 56.0123 8.60857 55.8123C6.36857 54.9723 4.08857 54.2123 1.77857 53.4323C0.558568 53.0223 -0.181432 51.7823 0.0385676 50.5123C0.448568 48.0923 0.848568 45.7523 1.35857 43.4323C1.45857 42.9923 2.43857 42.4723 3.00857 42.4623C5.57857 42.4623 8.14857 42.5823 10.7086 42.7323C11.7986 42.7923 12.3886 42.4623 12.8386 41.3723C13.9086 38.7623 15.2386 36.2623 16.3186 33.6623C16.5586 33.0723 16.4686 32.0223 16.0886 31.5523C14.6086 29.7323 13.0386 27.9823 11.4286 26.1823C10.5686 25.2123 10.5386 23.7523 11.3786 22.7623C12.6686 21.2323 13.9486 19.7123 15.2386 18.1723C16.0686 17.1823 17.5086 16.9523 18.6086 17.6323C20.6486 18.8923 22.6386 20.1223 24.6086 21.4023C25.6286 22.0723 26.2486 21.9123 27.3386 20.9623C29.1586 19.3823 31.1286 17.9723 33.2386 16.8123C34.6686 16.0323 35.1586 15.5823 34.8586 14.3023C34.3286 12.0123 33.8686 9.71231 33.3886 7.34231C33.1286 6.07231 33.8386 4.80231 35.0586 4.36231C36.9486 3.68231 38.8186 3.01231 40.6986 2.32231C41.9186 1.88231 43.2686 2.40231 43.8886 3.54231C45.0286 5.66231 46.1486 7.73231 47.2186 9.82231C47.6486 10.6623 48.0486 11.0323 49.1186 10.8923C51.9086 10.5223 54.7286 10.2923 57.5486 10.1423C58.5886 10.0823 59.1386 9.87231 59.4486 8.76231C60.1586 6.23231 61.1186 3.77231 61.8586 1.24231C62.1786 0.142307 62.6486 -0.157694 63.7786 0.0723065C65.9686 0.512307 68.1686 0.882307 70.4586 1.27231C71.7286 1.49231 72.6586 2.61231 72.6286 3.90231C72.5786 6.08231 72.5386 8.21231 72.4186 10.3523C72.3486 11.7823 72.6386 12.6523 74.1686 13.2123C76.5686 14.0923 78.8886 15.2323 81.1386 16.4423C82.2686 17.0423 82.9886 17.1223 83.9686 16.1723C85.5886 14.6123 87.2886 13.1323 89.0586 11.5823C90.0286 10.7323 91.4586 10.7123 92.4486 11.5323C93.9886 12.8123 95.5186 14.0923 97.0886 15.3923C98.0786 16.2223 98.3186 17.6423 97.6586 18.7523C96.4586 20.7523 95.2886 22.7023 94.0386 24.6023C93.3686 25.6223 93.2986 26.2623 94.1286 27.2423C95.8986 29.3223 97.5586 31.5023 99.4086 33.8723C100.019 34.6523 101.009 35.0223 101.969 34.8223C103.759 34.4623 105.799 34.0423 107.969 33.6123C109.239 33.3523 110.509 34.0623 110.949 35.2823C111.629 37.1523 112.309 39.0423 113.019 40.9823L112.999 41.0123Z"
        fill="url(#paint1_linear_11_142)" />
    <path
        d="M133.519 35.9523C134.409 35.9523 134.849 36.3923 134.849 37.3623V65.0223C134.849 72.6423 137.959 76.4823 144.099 76.4823C150.239 76.4823 153.349 72.6323 153.349 65.0223V37.3623C153.349 36.4023 153.789 35.9523 154.759 35.9523H164.299C165.189 35.9523 165.629 36.3923 165.629 37.3623V67.3223C165.629 73.6123 163.629 78.7123 159.709 82.6323C155.789 86.5523 150.539 88.4723 144.099 88.4723C137.659 88.4723 132.339 86.5523 128.419 82.6323C124.499 78.7123 122.579 73.6123 122.579 67.3223V37.3623C122.579 36.4023 123.019 35.9523 123.989 35.9523H133.529H133.519Z"
        fill="url(#paint2_linear_11_142)" />
    <path
        d="M202.389 49.1223C201.949 49.9323 201.209 50.0123 200.239 49.4923C197.499 47.7923 194.989 46.9823 192.549 46.9823C189.809 46.9823 187.819 48.2423 187.819 50.3123C187.819 52.6823 191.219 54.3823 195.589 56.0823C201.879 58.1523 210.009 62.2923 209.869 72.5023C209.869 76.1223 208.459 79.8223 205.729 83.0823C202.989 86.2623 197.959 88.4823 191.819 88.4823C186.119 88.4823 180.579 86.4823 175.179 82.4123C174.439 81.8923 174.289 81.2323 174.739 80.4923L179.549 73.1723C180.069 72.3623 180.809 72.2123 181.699 72.8723C185.179 75.4623 188.579 76.7223 191.979 76.7223C195.749 76.7223 197.529 75.0923 197.529 72.7323C197.529 70.3723 195.089 68.5123 191.829 67.4023C188.579 66.2223 184.509 64.2923 181.249 62.1523C177.999 60.0023 175.549 55.7923 175.549 50.3923C175.549 45.8823 177.249 42.2523 180.579 39.4423C183.909 36.6323 188.119 35.2223 193.149 35.2223C198.179 35.2223 202.619 36.6323 207.059 39.3623C207.869 39.8823 208.019 40.5423 207.579 41.3623L202.399 49.1323L202.389 49.1223Z"
        fill="url(#paint3_linear_11_142)" />
    <path
        d="M232.269 87.7323C231.379 87.7323 230.939 87.2923 230.939 86.3223V47.9323H218.439C217.479 47.9323 217.029 47.4923 217.029 46.6023V37.3523C217.029 36.3923 217.469 35.9423 218.439 35.9423H255.719C256.679 35.9423 257.129 36.3823 257.129 37.3523V46.6023C257.129 47.4923 256.689 47.9323 255.719 47.9323H243.219V86.3223C243.219 87.2823 242.779 87.7323 241.809 87.7323H232.269Z"
        fill="url(#paint4_linear_11_142)" />
    <path
        d="M257.929 87.7323C256.969 87.7323 256.669 87.2923 257.039 86.3223L272.059 37.3523C272.279 36.3923 272.869 35.9423 273.689 35.9423H286.409C287.219 35.9423 287.819 36.3823 288.039 37.3523L303.059 86.3223C303.429 87.1323 303.059 87.7323 302.169 87.7323H292.109C290.999 87.7323 290.409 87.2923 290.189 86.3223L287.819 78.0423H272.209L269.919 86.3223C269.699 87.2823 269.109 87.7323 267.999 87.7323H257.929ZM280.049 50.0823L274.949 66.6523H285.159L280.059 50.0823H280.049Z"
        fill="url(#paint5_linear_11_142)" />
    <path
        d="M320.359 87.7323C319.249 87.7323 318.659 87.2123 318.439 86.2523L303.419 37.3623C303.119 36.4023 303.419 35.9523 304.309 35.9523H314.369C315.479 35.9523 316.069 36.3923 316.289 37.3623L326.419 70.8723L336.549 37.3623C336.769 36.4023 337.359 35.9523 338.469 35.9523H348.529C349.419 35.9523 349.789 36.6923 349.419 37.3623L334.399 86.2523C334.179 87.2123 333.589 87.7323 332.479 87.7323H320.349H320.359Z"
        fill="url(#paint6_linear_11_142)" />
    <path
        d="M398.539 42.9823C403.719 48.0823 406.309 54.3723 406.309 61.8423C406.309 69.3123 403.719 75.6023 398.539 80.7823C393.359 85.9623 387.079 88.4723 379.599 88.4723C372.119 88.4723 365.769 85.8823 360.659 80.7823C355.559 75.6823 353.039 69.3223 353.039 61.8423C353.039 54.3623 355.629 48.0123 360.729 42.9023C365.829 37.8023 372.119 35.2123 379.589 35.2123C387.059 35.2123 393.419 37.8023 398.529 42.9823H398.539ZM379.609 76.4923C383.679 76.4923 387.079 75.0823 389.819 72.2023C392.629 69.3223 394.039 65.9123 394.039 61.8423C394.039 57.7723 392.629 54.3723 389.819 51.4823C387.079 48.6023 383.679 47.1923 379.609 47.1923C375.539 47.1923 372.139 48.6023 369.399 51.4823C366.659 54.3623 365.329 57.7723 365.329 61.8423C365.329 65.9123 366.659 69.3123 369.399 72.2023C372.139 75.0823 375.539 76.4923 379.609 76.4923Z"
        fill="url(#paint7_linear_11_142)" />
    <path
        d="M149.609 99.9123C149.859 99.9123 150.059 100.052 150.129 100.282L152.069 107.322C152.109 107.452 152.289 107.482 152.359 107.372L157.089 100.282C157.239 100.062 157.489 99.9123 157.739 99.9123H160.229C160.589 99.9123 160.819 100.192 160.759 100.542L158.929 110.652C158.869 111.002 158.529 111.282 158.169 111.282H156.229C155.879 111.282 155.639 111.002 155.699 110.652L156.429 106.612L153.549 110.922C153.399 111.142 153.149 111.292 152.899 111.292H150.329C150.079 111.292 149.879 111.152 149.809 110.922L148.479 106.632L147.749 110.652C147.689 111.002 147.349 111.282 146.989 111.282H145.049C144.689 111.282 144.459 111.002 144.519 110.652L146.349 100.542C146.409 100.192 146.749 99.9123 147.109 99.9123H149.609Z"
        fill="url(#paint8_linear_11_142)" />
    <path
        d="M173.739 110.652L175.569 100.522C175.629 100.172 175.969 99.8923 176.329 99.8923H185.919C186.129 99.8923 186.279 100.062 186.239 100.272L185.849 102.422C185.809 102.632 185.609 102.802 185.399 102.802H178.739C178.669 102.802 178.599 102.862 178.589 102.932L178.379 104.102C178.369 104.172 178.419 104.232 178.489 104.232H183.849C184.059 104.232 184.209 104.402 184.169 104.612L183.809 106.582C183.769 106.792 183.569 106.962 183.359 106.962H177.999C177.929 106.962 177.859 107.022 177.849 107.092L177.649 108.192C177.639 108.262 177.679 108.322 177.759 108.322H184.419C184.629 108.322 184.779 108.492 184.739 108.702L184.339 110.932C184.299 111.142 184.099 111.312 183.889 111.312H174.299C173.939 111.312 173.709 111.032 173.769 110.682L173.739 110.652Z"
        fill="url(#paint9_linear_11_142)" />
    <path
        d="M199.119 108.312L200.129 102.842C200.429 101.212 202.019 99.8823 203.679 99.8823H209.969C210.329 99.8823 210.559 100.162 210.499 100.512L210.199 102.192C210.139 102.542 209.799 102.822 209.439 102.822H203.959C203.749 102.822 203.539 102.992 203.509 103.202L202.649 107.922C202.609 108.132 202.749 108.302 202.969 108.302H208.449C208.809 108.302 209.039 108.582 208.979 108.932L208.669 110.652C208.609 111.002 208.269 111.282 207.909 111.282H201.599C199.929 111.282 198.819 109.952 199.119 108.312Z"
        fill="url(#paint10_linear_11_142)" />
    <path
        d="M236.179 100.532L234.349 110.652C234.289 111.002 233.949 111.282 233.589 111.282H231.439C231.079 111.282 230.849 111.002 230.909 110.652L231.559 107.052C231.569 106.982 231.529 106.922 231.449 106.922H227.289C227.219 106.922 227.149 106.982 227.139 107.052L226.489 110.652C226.429 111.002 226.089 111.282 225.729 111.282H223.579C223.219 111.282 222.989 111.002 223.049 110.652L224.879 100.532C224.939 100.182 225.279 99.9023 225.639 99.9023H227.789C228.149 99.9023 228.379 100.182 228.319 100.532L227.679 104.072C227.669 104.142 227.709 104.202 227.789 104.202H231.949C232.019 104.202 232.089 104.142 232.099 104.072L232.739 100.532C232.799 100.182 233.139 99.9023 233.499 99.9023H235.649C236.009 99.9023 236.239 100.182 236.179 100.532Z"
        fill="url(#paint11_linear_11_142)" />
    <path
        d="M248.399 110.492L254.989 100.512C255.329 100.062 255.749 99.9523 256.329 99.9223C256.489 99.9023 256.659 99.9123 256.849 99.9123H256.939C257.009 99.9123 257.059 99.9123 257.129 99.9123C257.369 99.9123 257.629 99.9123 257.929 99.9123C257.929 99.9123 258.499 99.8923 258.709 100.492L261.969 110.472C262.019 110.642 261.989 110.842 261.879 111.002C261.769 111.162 261.589 111.262 261.429 111.262H258.829C258.649 111.262 258.499 111.152 258.449 110.972L258.159 110.032H252.669L252.449 110.372L252.019 110.972C251.889 111.152 251.689 111.262 251.489 111.262H248.749C248.559 111.262 248.399 111.162 248.329 111.002C248.259 110.842 248.289 110.642 248.409 110.472L248.399 110.492ZM254.439 107.342H257.319L256.379 104.372L254.439 107.342Z"
        fill="url(#paint12_linear_11_142)" />
    <path
        d="M280.409 104.952L279.379 110.652C279.319 111.002 278.979 111.282 278.619 111.282H276.489C276.129 111.282 275.899 111.002 275.959 110.652L277.789 100.542C277.849 100.192 278.189 99.9123 278.549 99.9123H281.269C281.459 99.9123 281.619 99.9923 281.719 100.142L284.939 105.862C285.019 105.982 285.209 105.952 285.229 105.812L286.179 100.552C286.239 100.202 286.579 99.9223 286.939 99.9223H289.069C289.419 99.9223 289.659 100.202 289.599 100.552L287.769 110.662C287.709 111.012 287.369 111.292 287.009 111.292H284.659C284.469 111.292 284.309 111.212 284.209 111.062L280.709 104.902C280.629 104.782 280.439 104.812 280.419 104.952H280.409Z"
        fill="url(#paint13_linear_11_142)" />
    <path
        d="M307.299 99.9023C307.659 99.9023 307.889 100.182 307.829 100.532L305.999 110.652C305.939 111.002 305.599 111.282 305.239 111.282H303.089C302.729 111.282 302.499 111.002 302.559 110.652L304.389 100.532C304.449 100.182 304.789 99.9023 305.149 99.9023H307.299Z"
        fill="url(#paint14_linear_11_142)" />
    <path
        d="M321.059 108.312L322.069 102.842C322.369 101.212 323.959 99.8823 325.619 99.8823H331.909C332.269 99.8823 332.499 100.162 332.439 100.512L332.139 102.192C332.079 102.542 331.739 102.822 331.379 102.822H325.899C325.689 102.822 325.479 102.992 325.449 103.202L324.589 107.922C324.549 108.132 324.689 108.302 324.909 108.302H330.389C330.749 108.302 330.979 108.582 330.919 108.932L330.609 110.652C330.549 111.002 330.209 111.282 329.849 111.282H323.539C321.869 111.282 320.759 109.952 321.059 108.312Z"
        fill="url(#paint15_linear_11_142)" />
    <path
        d="M402.049 106.152H343.919C343.609 106.152 343.359 105.902 343.359 105.592C343.359 105.282 343.609 105.032 343.919 105.032H402.049C402.359 105.032 402.609 105.282 402.609 105.592C402.609 105.902 402.359 106.152 402.049 106.152Z"
        fill="url(#paint16_linear_11_142)" />
    <defs>
        <linearGradient id="paint0_linear_11_142" x1="-0.00564133" y1="55.6582" x2="406.309" y2="55.6582"
            gradientUnits="userSpaceOnUse">
            <stop stop-color="#B2B2AF" />
            <stop offset="0.03" stop-color="#BDBDBB" />
            <stop offset="0.13" stop-color="#E1E1E0" />
            <stop offset="0.19" stop-color="#EFEFEF" />
            <stop offset="0.26" stop-color="#F2F2F2" />
            <stop offset="0.32" stop-color="#FCFCFC" />
            <stop offset="0.6" stop-color="#D1D1D1" />
            <stop offset="0.74" stop-color="#DADADA" />
            <stop offset="0.87" stop-color="#E8E8E8" />
            <stop offset="0.93" stop-color="#F5F5F5" />
            <stop offset="0.97" stop-color="white" />
        </linearGradient>
        <linearGradient id="paint1_linear_11_142" x1="-0.00514351" y1="55.6826" x2="406.319" y2="55.6826"
            gradientUnits="userSpaceOnUse">
            <stop stop-color="#B2B2AF" />
            <stop offset="0.03" stop-color="#BDBDBB" />
            <stop offset="0.13" stop-color="#E1E1E0" />
            <stop offset="0.19" stop-color="#EFEFEF" />
            <stop offset="0.26" stop-color="#F2F2F2" />
            <stop offset="0.32" stop-color="#FCFCFC" />
            <stop offset="0.6" stop-color="#D1D1D1" />
            <stop offset="0.74" stop-color="#DADADA" />
            <stop offset="0.87" stop-color="#E8E8E8" />
            <stop offset="0.93" stop-color="#F5F5F5" />
            <stop offset="0.97" stop-color="white" />
        </linearGradient>
        <linearGradient id="paint2_linear_11_142" x1="6.79541" y1="-0.0847775" x2="44.4565" y2="167.625"
            gradientUnits="userSpaceOnUse">
            <stop stop-color="#B2B2AF" />
            <stop offset="0.03" stop-color="#BDBDBB" />
            <stop offset="0.13" stop-color="#E1E1E0" />
            <stop offset="0.19" stop-color="#EFEFEF" />
            <stop offset="0.26" stop-color="#F2F2F2" />
            <stop offset="0.32" stop-color="#FCFCFC" />
            <stop offset="0.6" stop-color="#D1D1D1" />
            <stop offset="0.74" stop-color="#DADADA" />
            <stop offset="0.87" stop-color="#E8E8E8" />
            <stop offset="0.93" stop-color="#F5F5F5" />
            <stop offset="0.97" stop-color="white" />
        </linearGradient>
        <linearGradient id="paint3_linear_11_142" x1="6.81656" y1="20.0847" x2="32.1937" y2="159.507"
            gradientUnits="userSpaceOnUse">
            <stop stop-color="#B2B2AF" />
            <stop offset="0.03" stop-color="#BDBDBB" />
            <stop offset="0.13" stop-color="#E1E1E0" />
            <stop offset="0.19" stop-color="#EFEFEF" />
            <stop offset="0.26" stop-color="#F2F2F2" />
            <stop offset="0.32" stop-color="#FCFCFC" />
            <stop offset="0.6" stop-color="#D1D1D1" />
            <stop offset="0.74" stop-color="#DADADA" />
            <stop offset="0.87" stop-color="#E8E8E8" />
            <stop offset="0.93" stop-color="#F5F5F5" />
            <stop offset="0.97" stop-color="white" />
        </linearGradient>
        <linearGradient id="paint4_linear_11_142" x1="9.11916" y1="-0.429862" x2="42.5217" y2="157.08"
            gradientUnits="userSpaceOnUse">
            <stop stop-color="#B2B2AF" />
            <stop offset="0.03" stop-color="#BDBDBB" />
            <stop offset="0.13" stop-color="#E1E1E0" />
            <stop offset="0.19" stop-color="#EFEFEF" />
            <stop offset="0.26" stop-color="#F2F2F2" />
            <stop offset="0.32" stop-color="#FCFCFC" />
            <stop offset="0.6" stop-color="#D1D1D1" />
            <stop offset="0.74" stop-color="#DADADA" />
            <stop offset="0.87" stop-color="#E8E8E8" />
            <stop offset="0.93" stop-color="#F5F5F5" />
            <stop offset="0.97" stop-color="white" />
        </linearGradient>
        <linearGradient id="paint5_linear_11_142" x1="24.3303" y1="28.6717" x2="64.8167" y2="193.92"
            gradientUnits="userSpaceOnUse">
            <stop stop-color="#B2B2AF" />
            <stop offset="0.03" stop-color="#BDBDBB" />
            <stop offset="0.13" stop-color="#E1E1E0" />
            <stop offset="0.19" stop-color="#EFEFEF" />
            <stop offset="0.26" stop-color="#F2F2F2" />
            <stop offset="0.32" stop-color="#FCFCFC" />
            <stop offset="0.6" stop-color="#D1D1D1" />
            <stop offset="0.74" stop-color="#DADADA" />
            <stop offset="0.87" stop-color="#E8E8E8" />
            <stop offset="0.93" stop-color="#F5F5F5" />
            <stop offset="0.97" stop-color="white" />
        </linearGradient>
        <linearGradient id="paint6_linear_11_142" x1="24.0918" y1="-4.94435" x2="64.5072" y2="160.24"
            gradientUnits="userSpaceOnUse">
            <stop stop-color="#B2B2AF" />
            <stop offset="0.03" stop-color="#BDBDBB" />
            <stop offset="0.13" stop-color="#E1E1E0" />
            <stop offset="0.19" stop-color="#EFEFEF" />
            <stop offset="0.26" stop-color="#F2F2F2" />
            <stop offset="0.32" stop-color="#FCFCFC" />
            <stop offset="0.6" stop-color="#D1D1D1" />
            <stop offset="0.74" stop-color="#DADADA" />
            <stop offset="0.87" stop-color="#E8E8E8" />
            <stop offset="0.93" stop-color="#F5F5F5" />
            <stop offset="0.97" stop-color="white" />
        </linearGradient>
        <linearGradient id="paint7_linear_11_142" x1="58.3492" y1="16.1973" x2="98.652" y2="163.282"
            gradientUnits="userSpaceOnUse">
            <stop stop-color="#B2B2AF" />
            <stop offset="0.03" stop-color="#BDBDBB" />
            <stop offset="0.13" stop-color="#E1E1E0" />
            <stop offset="0.19" stop-color="#EFEFEF" />
            <stop offset="0.26" stop-color="#F2F2F2" />
            <stop offset="0.32" stop-color="#FCFCFC" />
            <stop offset="0.6" stop-color="#D1D1D1" />
            <stop offset="0.74" stop-color="#DADADA" />
            <stop offset="0.87" stop-color="#E8E8E8" />
            <stop offset="0.93" stop-color="#F5F5F5" />
            <stop offset="0.97" stop-color="white" />
        </linearGradient>
        <linearGradient id="paint8_linear_11_142" x1="0.487189" y1="55.6562" x2="406.321" y2="55.6562"
            gradientUnits="userSpaceOnUse">
            <stop stop-color="#B2B2AF" />
            <stop offset="0.03" stop-color="#BDBDBB" />
            <stop offset="0.13" stop-color="#E1E1E0" />
            <stop offset="0.19" stop-color="#EFEFEF" />
            <stop offset="0.26" stop-color="#F2F2F2" />
            <stop offset="0.32" stop-color="#FCFCFC" />
            <stop offset="0.6" stop-color="#D1D1D1" />
            <stop offset="0.74" stop-color="#DADADA" />
            <stop offset="0.87" stop-color="#E8E8E8" />
            <stop offset="0.93" stop-color="#F5F5F5" />
            <stop offset="0.97" stop-color="white" />
        </linearGradient>
        <linearGradient id="paint9_linear_11_142" x1="-0.324879" y1="55.4612" x2="406.098" y2="55.4612"
            gradientUnits="userSpaceOnUse">
            <stop stop-color="#B2B2AF" />
            <stop offset="0.03" stop-color="#BDBDBB" />
            <stop offset="0.13" stop-color="#E1E1E0" />
            <stop offset="0.19" stop-color="#EFEFEF" />
            <stop offset="0.26" stop-color="#F2F2F2" />
            <stop offset="0.32" stop-color="#FCFCFC" />
            <stop offset="0.6" stop-color="#D1D1D1" />
            <stop offset="0.74" stop-color="#DADADA" />
            <stop offset="0.87" stop-color="#E8E8E8" />
            <stop offset="0.93" stop-color="#F5F5F5" />
            <stop offset="0.97" stop-color="white" />
        </linearGradient>
        <linearGradient id="paint10_linear_11_142" x1="-0.0373558" y1="55.6562" x2="406.326" y2="55.6562"
            gradientUnits="userSpaceOnUse">
            <stop stop-color="#B2B2AF" />
            <stop offset="0.03" stop-color="#BDBDBB" />
            <stop offset="0.13" stop-color="#E1E1E0" />
            <stop offset="0.19" stop-color="#EFEFEF" />
            <stop offset="0.26" stop-color="#F2F2F2" />
            <stop offset="0.32" stop-color="#FCFCFC" />
            <stop offset="0.6" stop-color="#D1D1D1" />
            <stop offset="0.74" stop-color="#DADADA" />
            <stop offset="0.87" stop-color="#E8E8E8" />
            <stop offset="0.93" stop-color="#F5F5F5" />
            <stop offset="0.97" stop-color="white" />
        </linearGradient>
        <linearGradient id="paint11_linear_11_142" x1="0.602419" y1="55.6561" x2="406.324" y2="55.6561"
            gradientUnits="userSpaceOnUse">
            <stop stop-color="#B2B2AF" />
            <stop offset="0.03" stop-color="#BDBDBB" />
            <stop offset="0.13" stop-color="#E1E1E0" />
            <stop offset="0.19" stop-color="#EFEFEF" />
            <stop offset="0.26" stop-color="#F2F2F2" />
            <stop offset="0.32" stop-color="#FCFCFC" />
            <stop offset="0.6" stop-color="#D1D1D1" />
            <stop offset="0.74" stop-color="#DADADA" />
            <stop offset="0.87" stop-color="#E8E8E8" />
            <stop offset="0.93" stop-color="#F5F5F5" />
            <stop offset="0.97" stop-color="white" />
        </linearGradient>
        <linearGradient id="paint12_linear_11_142" x1="-0.379884" y1="55.8155" x2="406.503" y2="55.8155"
            gradientUnits="userSpaceOnUse">
            <stop stop-color="#B2B2AF" />
            <stop offset="0.03" stop-color="#BDBDBB" />
            <stop offset="0.13" stop-color="#E1E1E0" />
            <stop offset="0.19" stop-color="#EFEFEF" />
            <stop offset="0.26" stop-color="#F2F2F2" />
            <stop offset="0.32" stop-color="#FCFCFC" />
            <stop offset="0.6" stop-color="#D1D1D1" />
            <stop offset="0.74" stop-color="#DADADA" />
            <stop offset="0.87" stop-color="#E8E8E8" />
            <stop offset="0.93" stop-color="#F5F5F5" />
            <stop offset="0.97" stop-color="white" />
        </linearGradient>
        <linearGradient id="paint13_linear_11_142" x1="0.282466" y1="55.5583" x2="406.332" y2="55.5583"
            gradientUnits="userSpaceOnUse">
            <stop stop-color="#B2B2AF" />
            <stop offset="0.03" stop-color="#BDBDBB" />
            <stop offset="0.13" stop-color="#E1E1E0" />
            <stop offset="0.19" stop-color="#EFEFEF" />
            <stop offset="0.26" stop-color="#F2F2F2" />
            <stop offset="0.32" stop-color="#FCFCFC" />
            <stop offset="0.6" stop-color="#D1D1D1" />
            <stop offset="0.74" stop-color="#DADADA" />
            <stop offset="0.87" stop-color="#E8E8E8" />
            <stop offset="0.93" stop-color="#F5F5F5" />
            <stop offset="0.97" stop-color="white" />
        </linearGradient>
        <linearGradient id="paint14_linear_11_142" x1="0.729461" y1="55.6562" x2="406.347" y2="55.6562"
            gradientUnits="userSpaceOnUse">
            <stop stop-color="#B2B2AF" />
            <stop offset="0.03" stop-color="#BDBDBB" />
            <stop offset="0.13" stop-color="#E1E1E0" />
            <stop offset="0.19" stop-color="#EFEFEF" />
            <stop offset="0.26" stop-color="#F2F2F2" />
            <stop offset="0.32" stop-color="#FCFCFC" />
            <stop offset="0.6" stop-color="#D1D1D1" />
            <stop offset="0.74" stop-color="#DADADA" />
            <stop offset="0.87" stop-color="#E8E8E8" />
            <stop offset="0.93" stop-color="#F5F5F5" />
            <stop offset="0.97" stop-color="white" />
        </linearGradient>
        <linearGradient id="paint15_linear_11_142" x1="0.317857" y1="55.6562" x2="406.326" y2="55.6562"
            gradientUnits="userSpaceOnUse">
            <stop stop-color="#B2B2AF" />
            <stop offset="0.03" stop-color="#BDBDBB" />
            <stop offset="0.13" stop-color="#E1E1E0" />
            <stop offset="0.19" stop-color="#EFEFEF" />
            <stop offset="0.26" stop-color="#F2F2F2" />
            <stop offset="0.32" stop-color="#FCFCFC" />
            <stop offset="0.6" stop-color="#D1D1D1" />
            <stop offset="0.74" stop-color="#DADADA" />
            <stop offset="0.87" stop-color="#E8E8E8" />
            <stop offset="0.93" stop-color="#F5F5F5" />
            <stop offset="0.97" stop-color="white" />
        </linearGradient>
        <linearGradient id="paint16_linear_11_142" x1="343.359" y1="105.582" x2="402.609" y2="105.582"
            gradientUnits="userSpaceOnUse">
            <stop stop-color="#B2B2AF" />
            <stop offset="0.03" stop-color="#BDBDBB" />
            <stop offset="0.13" stop-color="#E1E1E0" />
            <stop offset="0.19" stop-color="#EFEFEF" />
            <stop offset="0.26" stop-color="#F2F2F2" />
            <stop offset="0.32" stop-color="#FCFCFC" />
            <stop offset="0.6" stop-color="#D1D1D1" />
            <stop offset="0.74" stop-color="#DADADA" />
            <stop offset="0.87" stop-color="#E8E8E8" />
            <stop offset="0.93" stop-color="#F5F5F5" />
            <stop offset="0.97" stop-color="white" />
        </linearGradient>
    </defs>
</svg>