<svg width="48" height="49" viewBox="0 0 48 49" fill="none" xmlns="http://www.w3.org/2000/svg">
    <path
        d="M40.87 48.1802C18.87 46.8402 1.33 29.3102 0 7.38016C0 3.64016 2.98 0.660156 6.64 0.660156H17.17C17.73 0.660156 18.24 1.00016 18.45 1.52016L23.72 14.6902C23.97 15.3202 23.72 16.0302 23.15 16.3802L17.68 19.6602C20.19 24.2002 23.97 27.9902 28.52 30.5002L31.8 25.0302C32.15 24.4502 32.86 24.2102 33.49 24.4602L46.66 29.7302C47.18 29.9402 47.52 30.4402 47.52 31.0102V41.5402C47.52 45.2002 44.54 48.1802 40.88 48.1802H40.87ZM6.64 3.41016C4.49 3.41016 2.75 5.16016 2.75 7.30016C4 27.7502 20.42 44.1802 40.96 45.4302C43.02 45.4302 44.77 43.6802 44.77 41.5402V31.9402L33.55 27.4502L30.2 33.0302C29.83 33.6502 29.05 33.8702 28.41 33.5602C22.45 30.6202 17.56 25.7202 14.62 19.7702C14.3 19.1302 14.53 18.3502 15.15 17.9802L20.73 14.6302L16.24 3.42016H6.64V3.41016Z"
        fill="url(#paint0_linear_11_107)" />
    <defs>
        <linearGradient id="paint0_linear_11_107" x1="23.76" y1="0.660156" x2="23.76" y2="48.1802"
            gradientUnits="userSpaceOnUse">
            <stop stop-color="#4FFE01" />
            <stop offset="1" stop-color="#045000" />
        </linearGradient>
    </defs>
</svg>