<svg xmlns="http://www.w3.org/2000/svg" width="86" height="93" viewBox="0 0 86 93" fill="none">
    <path
        d="M11.8889 81.3C11.8889 83.6074 12.8254 85.8203 14.4924 87.4518C16.1594 89.0834 18.4203 90 20.7778 90C23.1353 90 25.3962 89.0834 27.0632 87.4518C28.7302 85.8203 29.6667 83.6074 29.6667 81.3M11.8889 81.3C11.8889 78.9926 12.8254 76.7797 14.4924 75.1482C16.1594 73.5166 18.4203 72.6 20.7778 72.6C23.1353 72.6 25.3962 73.5166 27.0632 75.1482C28.7302 76.7797 29.6667 78.9926 29.6667 81.3M11.8889 81.3H3V55.2M29.6667 81.3H56.3333M56.3333 81.3C56.3333 83.6074 57.2698 85.8203 58.9368 87.4518C60.6038 89.0834 62.8647 90 65.2222 90C67.5797 90 69.8406 89.0834 71.5076 87.4518C73.1746 85.8203 74.1111 83.6074 74.1111 81.3M56.3333 81.3C56.3333 78.9926 57.2698 76.7797 58.9368 75.1482C60.6038 73.5166 62.8647 72.6 65.2222 72.6C67.5797 72.6 69.8406 73.5166 71.5076 75.1482C73.1746 76.7797 74.1111 78.9926 74.1111 81.3M74.1111 81.3H83V63.9C83 61.5926 82.0635 59.3798 80.3965 57.7482C78.7295 56.1166 76.4686 55.2 74.1111 55.2H69.6667M3 55.2L11.8889 33.45H51.8889L69.6667 55.2M3 55.2H69.6667M43 55.2V33.45M3 20.4L43 3L83 20.4"
        stroke="url(#paint0_linear_6_93)" stroke-width="4.75" stroke-linecap="round" stroke-linejoin="round" />
    <defs>
        <linearGradient id="paint0_linear_6_93" x1="43" y1="3" x2="43" y2="90" gradientUnits="userSpaceOnUse">
            <stop stop-color="#045000" />
            <stop offset="0.505" stop-color="#4FFE01" />
            <stop offset="1" stop-color="#088F00" />
        </linearGradient>
    </defs>
</svg>