<svg xmlns="http://www.w3.org/2000/svg" width="27" height="27" viewBox="0 0 27 27" fill="none">
    <path
        d="M10.1669 26.3439C7.55098 26.3439 5.08976 25.327 3.24017 23.4774C1.39057 21.6204 0.373657 19.1592 0.373657 16.5432C0.373657 11.9819 3.47597 8.06896 7.90469 7.01521C8.20681 6.94889 8.52368 7.01521 8.76685 7.2068C9.01003 7.39839 9.15003 7.69315 9.15003 8.00264V13.8462C9.15003 14.1631 9.00266 14.4652 8.74474 14.6568C8.23629 15.0326 7.91206 15.5853 7.82363 16.2116C7.7352 16.838 7.89732 17.457 8.27313 17.9654C9.05424 19.0118 10.5428 19.2255 11.5818 18.437C12.1713 17.9949 12.525 17.2875 12.525 16.5432V1.01691C12.525 0.456873 12.9819 0 13.5419 0H19.0612C19.5549 0 19.975 0.353708 20.0634 0.847425C20.5645 3.82447 22.9078 6.16041 25.8775 6.6615C26.3638 6.74256 26.7249 7.16259 26.7249 7.66367V13.1167C26.7249 13.4041 26.607 13.6767 26.3933 13.8683C26.1796 14.0599 25.8922 14.1557 25.6122 14.1262C23.6226 13.9272 21.6993 13.323 19.9676 12.3503V16.558C19.9676 19.1739 18.9507 21.6351 17.0937 23.4847C15.2441 25.3343 12.7829 26.3512 10.1669 26.3512V26.3439ZM7.13095 9.39537C4.29392 10.5965 2.40011 13.3746 2.40011 16.5432C2.40011 20.8246 5.88561 24.3101 10.1669 24.3101C12.245 24.3101 14.1904 23.4995 15.6568 22.0331C17.1232 20.5666 17.9338 18.6139 17.9338 16.5432V10.4639C17.9338 10.0807 18.1475 9.72697 18.4938 9.55748C18.8402 9.388 19.2528 9.42484 19.5549 9.65328C21.0729 10.7955 22.8267 11.5692 24.6837 11.9303V8.46688C21.5446 7.62683 19.0833 5.15824 18.2359 2.01908H14.5514V16.5432C14.5514 17.9212 13.8956 19.2329 12.7976 20.0582C10.867 21.5099 8.10365 21.1193 6.65197 19.1813C5.94456 18.2454 5.6498 17.0885 5.81929 15.9242C5.95929 14.9368 6.41617 14.0525 7.12358 13.3746V9.388L7.13095 9.39537Z"
        fill="#fff" />
</svg>