<svg width="85" height="84" viewBox="0 0 85 84" fill="none" xmlns="http://www.w3.org/2000/svg">
    <path
        d="M29.3221 33.2602C29.3221 33.8348 29.5532 34.3859 29.9646 34.7923C30.3759 35.1986 30.9338 35.4269 31.5156 35.4269C32.0974 35.4269 32.6553 35.1986 33.0666 34.7923C33.478 34.3859 33.7091 33.8348 33.7091 33.2602V28.9269C33.7091 28.3522 33.478 27.8011 33.0666 27.3948C32.6553 26.9885 32.0974 26.7602 31.5156 26.7602C30.9338 26.7602 30.3759 26.9885 29.9646 27.3948C29.5532 27.8011 29.3221 28.3522 29.3221 28.9269V33.2602ZM29.3221 33.2602C29.3221 39.0065 31.6331 44.5175 35.7467 48.5808C39.8604 52.6441 45.4396 54.9268 51.2572 54.9268M51.2572 54.9268H55.6442C56.2259 54.9268 56.7839 54.6986 57.1952 54.2922C57.6066 53.8859 57.8377 53.3348 57.8377 52.7602C57.8377 52.1855 57.6066 51.6344 57.1952 51.2281C56.7839 50.8218 56.2259 50.5935 55.6442 50.5935H51.2572C50.6754 50.5935 50.1175 50.8218 49.7061 51.2281C49.2948 51.6344 49.0637 52.1855 49.0637 52.7602C49.0637 53.3348 49.2948 53.8859 49.7061 54.2922C50.1175 54.6986 50.6754 54.9268 51.2572 54.9268ZM3 80.9268L10.2386 64.4602C4.70068 56.6951 2.22204 47.2007 3.2678 37.7586C4.31357 28.3166 8.81186 19.5761 15.9185 13.1774C23.0251 6.77877 32.2515 3.16179 41.8662 3.0053C51.481 2.8488 60.823 6.16355 68.1392 12.3275C75.4554 18.4914 80.2428 27.0808 81.6029 36.4836C82.9631 45.8865 80.8025 55.4564 75.5266 63.3975C70.2507 71.3386 62.2223 77.1049 52.9479 79.6143C43.6735 82.1237 33.7908 81.2036 25.1544 77.0268L3 80.9268Z"
        stroke="url(#paint0_linear_6_92)" stroke-width="4.75" stroke-linecap="round" stroke-linejoin="round" />
    <defs>
        <linearGradient id="paint0_linear_6_92" x1="42.5" y1="3" x2="42.5" y2="81" gradientUnits="userSpaceOnUse">
            <stop stop-color="#045000" />
            <stop offset="0.505" stop-color="#4FFE01" />
            <stop offset="1" stop-color="#088F00" />
        </linearGradient>
    </defs>
</svg>